<svg width="14" height="16" viewBox="0 0 14 16" fill="none" xmlns="http://www.w3.org/2000/svg">
<path d="M12 1.5H2C1.71875 1.5 1.5 1.75 1.5 2V14C1.5 14.2812 1.71875 14.5 2 14.5H12C12.25 14.5 12.5 14.2812 12.5 14V2C12.5 1.75 12.25 1.5 12 1.5ZM2 0H12C13.0938 0 14 0.90625 14 2V14C14 15.125 13.0938 16 12 16H2C0.875 16 0 15.125 0 14V2C0 0.90625 0.875 0 2 0ZM2.5 3.5C2.5 3.25 2.71875 3 3 3H4C4.25 3 4.5 3.25 4.5 3.5V4.5C4.5 4.78125 4.25 5 4 5H3C2.71875 5 2.5 4.78125 2.5 4.5V3.5ZM3 11H4C4.25 11 4.5 11.25 4.5 11.5V12.5C4.5 12.7812 4.25 13 4 13H3C2.71875 13 2.5 12.7812 2.5 12.5V11.5C2.5 11.25 2.71875 11 3 11ZM5.5 4C5.5 3.59375 5.8125 3.25 6.25 3.25H10.75C11.1562 3.25 11.5 3.59375 11.5 4C11.5 4.4375 11.1562 4.75 10.75 4.75H6.25C5.8125 4.75 5.5 4.4375 5.5 4ZM6.5 8C6.5 7.59375 6.8125 7.25 7.25 7.25H10.75C11.1562 7.25 11.5 7.59375 11.5 8C11.5 8.4375 11.1562 8.75 10.75 8.75H7.25C6.8125 8.75 6.5 8.4375 6.5 8ZM5.5 12C5.5 11.5938 5.8125 11.25 6.25 11.25H10.75C11.1562 11.25 11.5 11.5938 11.5 12C11.5 12.4375 11.1562 12.75 10.75 12.75H6.25C5.8125 12.75 5.5 12.4375 5.5 12ZM5.34375 7.625L3.84375 9.125C3.65625 9.3125 3.3125 9.3125 3.125 9.125L2.375 8.375C2.1875 8.1875 2.1875 7.84375 2.375 7.65625C2.5625 7.46875 2.90625 7.46875 3.09375 7.65625L3.5 8.0625L4.625 6.90625C4.8125 6.71875 5.15625 6.71875 5.34375 6.90625C5.53125 7.09375 5.53125 7.4375 5.34375 7.625Z" fill="#16B268"/>
</svg>
