<svg width="12" height="16" viewBox="0 0 12 16" fill="none" xmlns="http://www.w3.org/2000/svg">
<path d="M2 14.5H10C10.25 14.5 10.5 14.2812 10.5 14V5H8C7.4375 5 7 4.5625 7 4V1.5H2C1.71875 1.5 1.5 1.75 1.5 2V14C1.5 14.2812 1.71875 14.5 2 14.5ZM0 2C0 0.90625 0.875 0 2 0H7.15625C7.6875 0 8.1875 0.21875 8.5625 0.59375L11.4062 3.4375C11.7812 3.8125 12 4.3125 12 4.84375V14C12 15.125 11.0938 16 10 16H2C0.875 16 0 15.125 0 14V2ZM2.5 3.5C2.5 3.25 2.71875 3 3 3H5.5C5.75 3 6 3.25 6 3.5C6 3.78125 5.75 4 5.5 4H3C2.71875 4 2.5 3.78125 2.5 3.5ZM2.5 5.5C2.5 5.25 2.71875 5 3 5H5.5C5.75 5 6 5.25 6 5.5C6 5.78125 5.75 6 5.5 6H3C2.71875 6 2.5 5.78125 2.5 5.5ZM6 12.5C6 12.25 6.21875 12 6.5 12H9C9.25 12 9.5 12.25 9.5 12.5C9.5 12.7812 9.25 13 9 13H6.5C6.21875 13 6 12.7812 6 12.5ZM3.5 7H8.5C9.03125 7 9.5 7.46875 9.5 8V10C9.5 10.5625 9.03125 11 8.5 11H3.5C2.9375 11 2.5 10.5625 2.5 10V8C2.5 7.46875 2.9375 7 3.5 7Z" fill="#16B268"/>
</svg>
