<svg width="14" height="16" viewBox="0 0 14 16" fill="none" xmlns="http://www.w3.org/2000/svg">
<path d="M1 0C1.53125 0 2 0.46875 2 1V1.5L4.15625 0.96875C5.34375 0.6875 6.59375 0.8125 7.6875 1.375C9.125 2.09375 10.8438 2.09375 12.2812 1.375L12.5938 1.21875C13.2188 0.90625 14 1.375 14 2.09375V10.8125C14 11.25 13.7188 11.625 13.3438 11.75L12.25 12.1562C10.8125 12.7188 9.1875 12.625 7.8125 11.9375C6.625 11.3438 5.28125 11.1875 4 11.5L2 12V15C2 15.5625 1.53125 16 1 16C0.4375 16 0 15.5625 0 15V12.5V10.4375V2V1C0 0.46875 0.4375 0 1 0ZM2 5.875L4 5.4375V7.46875L2 7.90625V9.9375L3.5 9.5625C3.65625 9.53125 3.8125 9.5 4 9.46875V7.46875L5.1875 7.21875C5.46875 7.15625 5.71875 7.125 6 7.15625V5.15625C6.40625 5.15625 6.84375 5.21875 7.25 5.34375L8 5.5625V7.65625L6.6875 7.25C6.46875 7.1875 6.21875 7.15625 6 7.15625V9.375C6.65625 9.4375 7.34375 9.59375 8 9.8125V7.65625L8.6875 7.84375C9.125 7.96875 9.5625 8.0625 10 8.09375V6.0625C9.75 6.0625 9.5 6 9.25 5.9375L8 5.5625V3.625C7.59375 3.5 7.1875 3.34375 6.78125 3.15625C6.53125 3.03125 6.25 2.9375 6 2.875V5.15625C5.59375 5.125 5.1875 5.15625 4.78125 5.25L4 5.4375V3.0625L2 3.5625V5.875ZM10 10.5C10.5 10.5625 11.0312 10.4688 11.5625 10.2812L12 10.125V7.875L11.75 7.9375C11.1562 8.0625 10.5625 8.125 10 8.09375V10.5ZM12 5.84375V3.625C11.3438 3.8125 10.6562 3.90625 10 3.90625V6.0625C10.4062 6.125 10.875 6.09375 11.2812 6L12 5.84375Z" fill="#16B268"/>
</svg>
