<svg width="18" height="16" viewBox="0 0 18 16" fill="none" xmlns="http://www.w3.org/2000/svg">
<path d="M8.28125 12.75C8.4375 12.7188 8.5625 12.6875 8.71875 12.6562C10.4688 12.2188 12.4375 11.6875 14.5 11.75C14.625 10.7812 15.4688 10.0312 16.5 10.0312V4.5C15.375 4.5 14.5 3.625 14.5 2.53125C13.0312 2.46875 11.4688 2.8125 9.6875 3.28125C9.53125 3.3125 9.40625 3.34375 9.25 3.375C7.5 3.8125 5.53125 4.34375 3.46875 4.28125C3.34375 5.25 2.5 6 1.5 6V11.5C2.59375 11.5 3.46875 12.4062 3.5 13.5C4.96875 13.5625 6.5 13.2188 8.28125 12.75ZM0 13.1875V3.53125C0 2.78125 0.78125 2.28125 1.5 2.46875C4 3.15625 6.5 2.53125 9 1.90625C11.6875 1.21875 14.4062 0.5 17.125 1.53125C17.6562 1.71875 18 2.25 18 2.84375V12.4688C18 13.25 17.1875 13.75 16.4688 13.5312C13.9688 12.8438 11.4688 13.5 9 14.125C6.28125 14.8125 3.5625 15.5 0.84375 14.5C0.3125 14.3125 0 13.75 0 13.1875ZM12 8C12 9.9375 10.6562 11.5 9 11.5C7.34375 11.5 6 9.9375 6 8C6 6.09375 7.34375 4.5 9 4.5C10.6562 4.5 12 6.09375 12 8ZM8 6.5C8 6.78125 8.21875 7 8.5 7V9H8.25C7.96875 9 7.75 9.25 7.75 9.5C7.75 9.78125 7.96875 10 8.25 10H9H9.75C10 10 10.25 9.78125 10.25 9.5C10.25 9.25 10 9 9.75 9H9.5V6.5C9.5 6.25 9.25 6 9 6H8.5C8.21875 6 8 6.25 8 6.5Z" fill="#16B268"/>
</svg>
