<svg width="16" height="16" viewBox="0 0 16 16" fill="none" xmlns="http://www.w3.org/2000/svg">
<path d="M13.6875 4.875C14.25 4 14.5 3.34375 14.5 3C14.5 2.1875 13.8125 1.5 13 1.5C12.1562 1.5 11.5 2.1875 11.5 3C11.5 3.34375 11.7188 4 12.2812 4.875C12.5 5.25 12.75 5.59375 13 5.90625C13.2188 5.59375 13.4688 5.25 13.6875 4.875ZM13.3438 7.84375C13.2188 8 13.0625 8.0625 12.875 8H10.25C9.53125 8 9 8.5625 9 9.25C9 9.96875 9.53125 10.5 10.25 10.5H13.25C14.75 10.5 16 11.75 16 13.25C16 14.7812 14.75 16 13.25 16H4.34375C4.625 15.7188 4.9375 15.3125 5.28125 14.875C5.375 14.75 5.46875 14.625 5.53125 14.5H13.25C13.9375 14.5 14.5 13.9688 14.5 13.25C14.5 12.5625 13.9375 12 13.25 12H10.25C8.71875 12 7.5 10.7812 7.5 9.25C7.5 7.75 8.71875 6.5 10.25 6.5H11.5625C10.7812 5.4375 10 4.0625 10 3C10 1.34375 11.3438 0 13 0C14.6562 0 16 1.34375 16 3C16 4.59375 14.125 6.9375 13.3438 7.84375ZM3.6875 12.7812C4.25 11.9375 4.5 11.3125 4.5 11C4.5 10.1875 3.8125 9.5 3 9.5C2.15625 9.5 1.5 10.1875 1.5 11C1.5 11.3125 1.71875 11.9375 2.28125 12.7812C2.5 13.125 2.75 13.4688 3 13.75C3.21875 13.4688 3.46875 13.125 3.6875 12.7812ZM4.28125 14.5C4.0625 14.7812 3.84375 15.0625 3.65625 15.2812C3.5625 15.4062 3.4375 15.5 3.375 15.625C3.34375 15.625 3.34375 15.625 3.34375 15.6562C3.34375 15.6562 3.34375 15.6562 3.3125 15.6562C3.15625 15.8438 2.84375 15.8438 2.65625 15.6562C1.84375 14.7812 0 12.5938 0 11C0 9.34375 1.34375 8 3 8C4.65625 8 6 9.34375 6 11C6 12.0938 5.09375 13.4688 4.28125 14.5Z" fill="#16B268"/>
</svg>
