<svg width="18" height="15" viewBox="0 0 18 15" fill="none" xmlns="http://www.w3.org/2000/svg">
<path d="M9.875 2.0625H2C1.75391 2.0625 1.5625 2.28125 1.5625 2.5V10.375C1.5625 10.6211 1.75391 10.8125 2 10.8125H2.32812C2.79297 10.0469 3.64062 9.5 4.625 9.5C5.58203 9.5 6.42969 10.0469 6.89453 10.8125H9H9.875C10.0938 10.8125 10.3125 10.6211 10.3125 10.375V2.5C10.3125 2.28125 10.0938 2.0625 9.875 2.0625ZM10.75 12.125H10.5312H9.875H9H7.25C7.25 13.5742 6.07422 14.75 4.625 14.75C3.17578 14.75 2 13.5742 2 12.125C1.01562 12.125 0.25 11.3594 0.25 10.375V2.5C0.25 1.54297 1.01562 0.75 2 0.75H9.875C10.832 0.75 11.625 1.54297 11.625 2.5V3.375H12.7734C13.1836 3.375 13.5664 3.53906 13.8672 3.83984L16.4102 6.38281C16.7109 6.68359 16.875 7.06641 16.875 7.47656V10.8125H17.0938C17.4492 10.8125 17.75 11.1133 17.75 11.4688C17.75 11.8516 17.4492 12.125 17.0938 12.125H16C16 13.5742 14.8242 14.75 13.375 14.75C11.9258 14.75 10.75 13.5742 10.75 12.125ZM15.4805 7.3125L12.9375 4.76953C12.8828 4.71484 12.8281 4.6875 12.7734 4.6875H11.625V7.3125H15.5078H15.4805ZM3.3125 12.125C3.3125 12.6172 3.55859 13.0273 3.96875 13.2734C4.35156 13.5195 4.87109 13.5195 5.28125 13.2734C5.66406 13.0273 5.9375 12.6172 5.9375 12.125C5.9375 11.6602 5.66406 11.25 5.28125 11.0039C4.87109 10.7578 4.35156 10.7578 3.96875 11.0039C3.55859 11.25 3.3125 11.6602 3.3125 12.125ZM13.375 10.8125C12.8828 10.8125 12.4727 11.0859 12.2266 11.4688C11.9805 11.8789 11.9805 12.3984 12.2266 12.7812C12.4727 13.1914 12.8828 13.4375 13.375 13.4375C13.8398 13.4375 14.25 13.1914 14.4961 12.7812C14.7422 12.3984 14.7422 11.8789 14.4961 11.4688C14.25 11.0859 13.8398 10.8125 13.375 10.8125Z" fill="#16B268"/>
</svg>
