<svg width="24" height="24" viewBox="0 0 24 24" fill="none" xmlns="http://www.w3.org/2000/svg">
<path d="M5.29134 3C3.87402 3 2.55119 3.51968 1.55907 4.51181C0.677802 5.39527 0.13383 6.55951 0.0216326 7.80231C-0.0905643 9.0451 0.236102 10.2879 0.944893 11.3149V17.8819C0.992137 18.685 1.60631 19.2992 2.40946 19.2992H3.40158C3.6378 20.7165 4.8189 21.7086 6.23622 21.7086C7.65355 21.7086 8.83465 20.7165 9.07087 19.2992H13.5118C13.6856 19.2995 13.8578 19.2655 14.0184 19.1991C14.179 19.1327 14.325 19.0353 14.4479 18.9124C14.5708 18.7895 14.6682 18.6436 14.7346 18.4829C14.8009 18.3223 14.8349 18.1502 14.8346 17.9764V6.30708C14.8346 5.92913 14.7402 5.59842 14.5039 5.31496C14.2344 5.08849 13.9073 4.94129 13.5591 4.88976H9.35433C8.85379 4.29999 8.23141 3.82567 7.53002 3.49944C6.82863 3.17322 6.06488 3.00283 5.29134 3ZM5.29134 3.94488C7.32284 3.94488 9.07087 5.40945 9.49606 7.44094C9.87402 9.42519 8.7874 11.4567 6.89764 12.2126C5.98572 12.6007 4.96667 12.6573 4.01738 12.3725C3.06809 12.0877 2.24848 11.4795 1.7008 10.6535C0.566941 8.95275 0.755917 6.68503 2.22048 5.22047C3.03822 4.41053 4.14041 3.9527 5.29134 3.94488ZM5.29134 4.41732C5.16613 4.41758 5.04611 4.46744 4.95757 4.55599C4.86903 4.64453 4.81917 4.76454 4.8189 4.88976V7.67716C4.62993 7.81889 4.53544 8.05511 4.53544 8.29133V8.33858L3.49607 9.37794C3.35434 9.47243 3.3071 9.66141 3.35434 9.85039C3.38584 9.932 3.4367 10.0047 3.50254 10.0623C3.56838 10.1199 3.64722 10.1607 3.73229 10.1811C3.80905 10.2054 3.89154 10.2048 3.96793 10.1794C4.04432 10.1539 4.11068 10.1049 4.15749 10.0394L5.19686 9.04724H5.29134C5.62205 9.04724 5.90552 8.85826 6.00001 8.52755C6.09449 8.19684 6.00001 7.86614 5.76378 7.67716V4.88976C5.76075 4.76542 5.71 4.647 5.62205 4.55905C5.5341 4.4711 5.41569 4.42035 5.29134 4.41732ZM16.3464 7.29921C16.2153 7.29601 16.0848 7.31948 15.963 7.36821C15.8412 7.41694 15.7306 7.4899 15.6378 7.58267C15.545 7.67544 15.4721 7.78609 15.4233 7.90791C15.3746 8.02973 15.3511 8.16017 15.3543 8.29133V18.3543C15.3551 18.5482 15.4141 18.7374 15.5236 18.8974C15.6331 19.0575 15.7881 19.181 15.9685 19.2519C16.1575 20.6693 17.3858 21.7086 18.8031 21.7086C20.2205 21.7086 21.4016 20.7165 21.6378 19.2992H22.5827C22.9606 19.2992 23.3386 19.1575 23.5748 18.9212C23.7105 18.7845 23.8179 18.6222 23.8909 18.4439C23.9638 18.2655 24.0009 18.0746 24 17.8819V13.252C23.9503 12.5158 23.6876 11.81 23.2441 11.2205L22.1575 9.70865L21.2126 8.52755C20.7401 8.00787 20.0315 7.29921 19.2283 7.29921H16.3464ZM18.2362 9.70865H20.9291L22.4882 11.7401C22.7716 12.1653 22.9606 12.685 23.0551 13.2047V13.5354H18.2362C17.7165 13.5354 17.3386 13.1102 17.2913 12.5905V10.6535C17.2921 10.4032 17.3919 10.1633 17.5689 9.98621C17.7459 9.80917 17.9858 9.70939 18.2362 9.70865ZM6.23622 16.937C7.32284 16.937 8.17323 17.7874 8.17323 18.8268C8.17607 19.0819 8.1279 19.3351 8.03156 19.5714C7.93522 19.8076 7.79265 20.0223 7.61221 20.2027C7.43178 20.3832 7.21711 20.5257 6.98082 20.6221C6.74454 20.7184 6.49138 20.7666 6.23622 20.7638C5.7232 20.7615 5.23184 20.5567 4.86907 20.1939C4.5063 19.8311 4.30149 19.3398 4.29922 18.8268C4.29922 17.7874 5.19686 16.937 6.23622 16.937ZM18.8031 16.937C19.8898 16.937 20.7401 17.7874 20.7401 18.8268C20.743 19.0819 20.6948 19.3351 20.5985 19.5714C20.5021 19.8076 20.3596 20.0223 20.1791 20.2027C19.9987 20.3832 19.784 20.5257 19.5477 20.6221C19.3115 20.7184 19.0583 20.7666 18.8031 20.7638C17.7638 20.7638 16.9134 19.9134 16.9134 18.8268C16.9148 18.326 17.1144 17.8462 17.4685 17.4921C17.8226 17.138 18.3024 16.9385 18.8031 16.937Z" fill="white"/>
</svg>
