<svg width="18" height="16" viewBox="0 0 18 16" fill="none" xmlns="http://www.w3.org/2000/svg">
<path d="M7.75 2.75C7.75 3.21875 7.96875 3.625 8.375 3.84375C8.75 4.0625 9.21875 4.0625 9.625 3.84375C10 3.625 10.25 3.21875 10.25 2.75C10.25 2.3125 10 1.90625 9.625 1.6875C9.21875 1.46875 8.75 1.46875 8.375 1.6875C7.96875 1.90625 7.75 2.3125 7.75 2.75ZM11.4375 4H13.25C13.9375 4 14.5312 4.46875 14.6875 5.15625L16.9375 14.1562C17.0625 14.5938 16.9375 15.0625 16.6562 15.4375C16.375 15.8125 15.9375 16 15.5 16H2.5C2.03125 16 1.59375 15.8125 1.3125 15.4375C1.03125 15.0625 0.90625 14.5938 1.03125 14.1562L3.28125 5.15625C3.4375 4.46875 4.0625 4 4.75 4H6.53125C6.34375 3.625 6.25 3.21875 6.25 2.75C6.25 1.25 7.46875 0 9 0C10.5 0 11.75 1.25 11.75 2.75C11.75 3.21875 11.625 3.625 11.4375 4ZM9 5.5H4.75L2.5 14.5H15.5L13.25 5.5H9Z" fill="#16B268"/>
</svg>
